# xmcd
#
# Track frame offsets: 
#        150
#        15566
#        38304
#        59002
#        75121
#        90220
#        100568
#        122079
#        135331
#        150816
#        168089
#        181274
#
# Disc length: 2994 seconds
#
# Revision: 0
# Processed by: cddbd v1.5.2PL0 Copyright (c) Steve Scherf et al.
# Submitted via: ExactAudioCopyFreeDBPlugin 1.0
#
DISCID=6b0bb00c
DTITLE=Rhonda Vincent - Christmas Time
DYEAR=2015
DGENRE=Christmas
TTITLE0=Dreaming of Christmas
TTITLE1=Angels We Have Heard On High
TTITLE2=Twelve Days of Christmas
TTITLE3=Christmas Time
TTITLE4=Christmas Time At Home 
TTITLE5=Milk and Cookies
TTITLE6=God Rest Ye Merry Gentlemen
TTITLE7=Jingle Bells
TTITLE8=Away In A Manger
TTITLE9=Silent Night
TTITLE10=O Little Town of Bethlehem
TTITLE11=Christmas Medley
EXTD=
EXTT0=
EXTT1=
EXTT2=
EXTT3=
EXTT4=
EXTT5=
EXTT6=
EXTT7=
EXTT8=
EXTT9=
EXTT10=
EXTT11=
PLAYORDER=
